{
    "accessors" : [
        {
            "bufferView" : 0, 
            "componentType" : 5121, 
            "count" : 60, 
            "max" : [
                35
            ], 
            "min" : [
                0
            ], 
            "type" : "SCALAR"
        }, 
        {
            "bufferView" : 1, 
            "componentType" : 5126, 
            "count" : 36, 
            "max" : [
                0.03002675250172615, 
                0.034671884030103683, 
                0.03801380470395088
            ], 
            "min" : [
                -0.03002675250172615, 
                -0.034671857953071594, 
                -0.038013771176338196
            ], 
            "type" : "VEC3"
        }, 
        {
            "bufferView" : 2, 
            "componentType" : 5126, 
            "count" : 36, 
            "max" : [
                1.0, 
                0.8660256862640381, 
                1.0
            ], 
            "min" : [
                -1.0, 
                -0.8660256266593933, 
                -1.0
            ], 
            "type" : "VEC3"
        }, 
        {
            "bufferView" : 3, 
            "componentType" : 5121, 
            "count" : 132, 
            "max" : [
                79
            ], 
            "min" : [
                0
            ], 
            "type" : "SCALAR"
        }, 
        {
            "bufferView" : 4, 
            "componentType" : 5126, 
            "count" : 80, 
            "max" : [
                0.011121317744255066, 
                0.06369132548570633, 
                0.06380950659513474
            ], 
            "min" : [
                -0.011121317744255066, 
                0.006502578034996986, 
                -0.02076948992908001
            ], 
            "type" : "VEC3"
        }, 
        {
            "bufferView" : 5, 
            "componentType" : 5126, 
            "count" : 80, 
            "max" : [
                1.0, 
                1.0, 
                1.0
            ], 
            "min" : [
                -1.0, 
                -0.9659180641174316, 
                -0.954011857509613
            ], 
            "type" : "VEC3"
        }, 
        {
            "bufferView" : 6, 
            "componentType" : 5121, 
            "count" : 54, 
            "max" : [
                35
            ], 
            "min" : [
                0
            ], 
            "type" : "SCALAR"
        }, 
        {
            "bufferView" : 7, 
            "componentType" : 5126, 
            "count" : 36, 
            "max" : [
                0.008684707805514336, 
                0.057058703154325485, 
                -0.28814786672592163
            ], 
            "min" : [
                -0.008684730157256126, 
                0.03968927264213562, 
                -0.539127767086029
            ], 
            "type" : "VEC3"
        }, 
        {
            "bufferView" : 8, 
            "componentType" : 5126, 
            "count" : 36, 
            "max" : [
                0.7071067690849304, 
                0.7071072459220886, 
                7.497121146116115e-08
            ], 
            "min" : [
                -0.7071070671081543, 
                -0.7071067690849304, 
                -1.0
            ], 
            "type" : "VEC3"
        }, 
        {
            "bufferView" : 9, 
            "componentType" : 5121, 
            "count" : 48, 
            "max" : [
                27
            ], 
            "min" : [
                0
            ], 
            "type" : "SCALAR"
        }, 
        {
            "bufferView" : 10, 
            "componentType" : 5126, 
            "count" : 28, 
            "max" : [
                0.014742914587259293, 
                0.08654455840587616, 
                -0.28814786672592163
            ], 
            "min" : [
                -0.014742954634130001, 
                0.05705869570374489, 
                -0.5610412955284119
            ], 
            "type" : "VEC3"
        }, 
        {
            "bufferView" : 11, 
            "componentType" : 5126, 
            "count" : 28, 
            "max" : [
                0.7071067690849304, 
                0.7071068286895752, 
                9.590906557832568e-08
            ], 
            "min" : [
                -0.7071067094802856, 
                -0.7071068286895752, 
                -1.0
            ], 
            "type" : "VEC3"
        }, 
        {
            "bufferView" : 12, 
            "componentType" : 5121, 
            "count" : 108, 
            "max" : [
                69
            ], 
            "min" : [
                0
            ], 
            "type" : "SCALAR"
        }, 
        {
            "bufferView" : 13, 
            "componentType" : 5126, 
            "count" : 70, 
            "max" : [
                0.021126262843608856, 
                0.05078914761543274, 
                0.01487630046904087
            ], 
            "min" : [
                -0.021126260980963707, 
                -0.15426968038082123, 
                -0.14564183354377747
            ], 
            "type" : "VEC3"
        }, 
        {
            "bufferView" : 14, 
            "componentType" : 5126, 
            "count" : 70, 
            "max" : [
                1.0, 
                0.8329849243164062, 
                0.9443628787994385
            ], 
            "min" : [
                -1.0, 
                -1.0, 
                -0.9998435378074646
            ], 
            "type" : "VEC3"
        }, 
        {
            "bufferView" : 15, 
            "componentType" : 5121, 
            "count" : 384, 
            "max" : [
                236
            ], 
            "min" : [
                0
            ], 
            "type" : "SCALAR"
        }, 
        {
            "bufferView" : 16, 
            "componentType" : 5126, 
            "count" : 237, 
            "max" : [
                0.017109103500843048, 
                0.11228294670581818, 
                -0.08152274787425995
            ], 
            "min" : [
                -0.017109109088778496, 
                -0.06192142888903618, 
                -0.5610412955284119
            ], 
            "type" : "VEC3"
        }, 
        {
            "bufferView" : 17, 
            "componentType" : 5126, 
            "count" : 237, 
            "max" : [
                1.0, 
                1.0, 
                1.0
            ], 
            "min" : [
                -1.0, 
                -1.0, 
                -1.0
            ], 
            "type" : "VEC3"
        }
    ], 
    "asset" : {
        "generator" : "Khronos Blender glTF 2.0 exporter", 
        "version" : "2.0"
    }, 
    "bufferViews" : [
        {
            "buffer" : 0, 
            "byteLength" : 60, 
            "byteOffset" : 0, 
            "target" : 34963
        }, 
        {
            "buffer" : 0, 
            "byteLength" : 432, 
            "byteOffset" : 60, 
            "target" : 34962
        }, 
        {
            "buffer" : 0, 
            "byteLength" : 432, 
            "byteOffset" : 492, 
            "target" : 34962
        }, 
        {
            "buffer" : 0, 
            "byteLength" : 132, 
            "byteOffset" : 924, 
            "target" : 34963
        }, 
        {
            "buffer" : 0, 
            "byteLength" : 960, 
            "byteOffset" : 1056, 
            "target" : 34962
        }, 
        {
            "buffer" : 0, 
            "byteLength" : 960, 
            "byteOffset" : 2016, 
            "target" : 34962
        }, 
        {
            "buffer" : 0, 
            "byteLength" : 54, 
            "byteOffset" : 2976, 
            "target" : 34963
        }, 
        {
            "buffer" : 0, 
            "byteLength" : 432, 
            "byteOffset" : 3032, 
            "target" : 34962
        }, 
        {
            "buffer" : 0, 
            "byteLength" : 432, 
            "byteOffset" : 3464, 
            "target" : 34962
        }, 
        {
            "buffer" : 0, 
            "byteLength" : 48, 
            "byteOffset" : 3896, 
            "target" : 34963
        }, 
        {
            "buffer" : 0, 
            "byteLength" : 336, 
            "byteOffset" : 3944, 
            "target" : 34962
        }, 
        {
            "buffer" : 0, 
            "byteLength" : 336, 
            "byteOffset" : 4280, 
            "target" : 34962
        }, 
        {
            "buffer" : 0, 
            "byteLength" : 108, 
            "byteOffset" : 4616, 
            "target" : 34963
        }, 
        {
            "buffer" : 0, 
            "byteLength" : 840, 
            "byteOffset" : 4724, 
            "target" : 34962
        }, 
        {
            "buffer" : 0, 
            "byteLength" : 840, 
            "byteOffset" : 5564, 
            "target" : 34962
        }, 
        {
            "buffer" : 0, 
            "byteLength" : 384, 
            "byteOffset" : 6404, 
            "target" : 34963
        }, 
        {
            "buffer" : 0, 
            "byteLength" : 2844, 
            "byteOffset" : 6788, 
            "target" : 34962
        }, 
        {
            "buffer" : 0, 
            "byteLength" : 2844, 
            "byteOffset" : 9632, 
            "target" : 34962
        }
    ], 
    "buffers" : [
        {
            "byteLength" : 12476, 
            "uri" : "revolver-python.bin"
        }
    ], 
    "cameras" : [
        {
            "name" : "Camera", 
            "perspective" : {
                "aspectRatio" : 1.7777777777777777, 
                "yfov" : 0.6280287869355033, 
                "zfar" : 100.0, 
                "znear" : 0.10000000149011612
            }, 
            "type" : "perspective"
        }
    ], 
    "materials" : [
        {
            "name" : "metal", 
            "pbrMetallicRoughness" : {
                "baseColorFactor" : [
                    0.11161400377750397, 
                    0.13733865320682526, 
                    0.15027189254760742, 
                    1.0
                ], 
                "metallicFactor" : 0.0
            }
        }, 
        {
            "name" : "metal_copper", 
            "pbrMetallicRoughness" : {
                "baseColorFactor" : [
                    0.27917027473449707, 
                    0.11537003517150879, 
                    0.0692158192396164, 
                    1.0
                ], 
                "metallicFactor" : 0.0
            }
        }, 
        {
            "name" : "metal_dark", 
            "pbrMetallicRoughness" : {
                "baseColorFactor" : [
                    0.05999999865889549, 
                    0.07206425070762634, 
                    0.08101470023393631, 
                    1.0
                ], 
                "metallicFactor" : 0.0
            }
        }, 
        {
            "name" : "metal_light", 
            "pbrMetallicRoughness" : {
                "baseColorFactor" : [
                    0.23103851079940796, 
                    0.28235578536987305, 
                    0.3153786063194275, 
                    1.0
                ], 
                "metallicFactor" : 0.0
            }
        }
    ], 
    "meshes" : [
        {
            "name" : "Cylinder", 
            "primitives" : [
                {
                    "attributes" : {
                        "NORMAL" : 2, 
                        "POSITION" : 1
                    }, 
                    "indices" : 0, 
                    "material" : 0
                }
            ]
        }, 
        {
            "name" : "Cube", 
            "primitives" : [
                {
                    "attributes" : {
                        "NORMAL" : 5, 
                        "POSITION" : 4
                    }, 
                    "indices" : 3, 
                    "material" : 3
                }
            ]
        }, 
        {
            "name" : "Cube.002", 
            "primitives" : [
                {
                    "attributes" : {
                        "NORMAL" : 8, 
                        "POSITION" : 7
                    }, 
                    "indices" : 6, 
                    "material" : 0
                }, 
                {
                    "attributes" : {
                        "NORMAL" : 11, 
                        "POSITION" : 10
                    }, 
                    "indices" : 9, 
                    "material" : 3
                }, 
                {
                    "attributes" : {
                        "NORMAL" : 14, 
                        "POSITION" : 13
                    }, 
                    "indices" : 12, 
                    "material" : 1
                }, 
                {
                    "attributes" : {
                        "NORMAL" : 17, 
                        "POSITION" : 16
                    }, 
                    "indices" : 15, 
                    "material" : 2
                }
            ]
        }
    ], 
    "nodes" : [
        {
            "children" : [
                10, 
                11
            ], 
            "mesh" : 2, 
            "name" : "Body", 
            "translation" : [
                0.12071476131677628, 
                -0.18901513516902924, 
                -0.6798228621482849
            ]
        }, 
        {
            "camera" : 0, 
            "name" : "Correction_Camera", 
            "rotation" : [
                -0.7071067690849304, 
                -0.0, 
                0.0, 
                0.7071067690849304
            ]
        }, 
        {
            "children" : [
                1
            ], 
            "name" : "Camera", 
            "rotation" : [
                0.7071068286895752, 
                0.0, 
                -0.0, 
                0.7071068286895752
            ]
        }, 
        {
            "name" : "Chamber 0", 
            "scale" : [
                2.315363883972168, 
                2.315363883972168, 
                2.315363883972168
            ], 
            "translation" : [
                0.0, 
                0.020838268101215363, 
                0.015450775623321533
            ]
        }, 
        {
            "name" : "Chamber 1", 
            "rotation" : [
                0.0, 
                0.0, 
                -0.5000000596046448, 
                0.8660253882408142
            ], 
            "scale" : [
                2.315363883972168, 
                2.315363883972168, 
                2.315363883972168
            ], 
            "translation" : [
                0.01804649829864502, 
                0.010419130325317383, 
                0.015450775623321533
            ]
        }, 
        {
            "name" : "Chamber 2", 
            "rotation" : [
                0.0, 
                0.0, 
                -0.8660253882408142, 
                0.4999999701976776
            ], 
            "scale" : [
                2.315363883972168, 
                2.315363883972168, 
                2.315363883972168
            ], 
            "translation" : [
                0.01804649829864502, 
                -0.010419145226478577, 
                0.015450775623321533
            ]
        }, 
        {
            "name" : "Chamber 3", 
            "rotation" : [
                0.0, 
                0.0, 
                -1.0, 
                -2.821299744937278e-07
            ], 
            "scale" : [
                2.315363883972168, 
                2.315363883972168, 
                2.315363883972168
            ], 
            "translation" : [
                0.0, 
                -0.020838290452957153, 
                0.015450775623321533
            ]
        }, 
        {
            "name" : "Chamber 4", 
            "rotation" : [
                0.0, 
                0.0, 
                0.8660252094268799, 
                0.500000536441803
            ], 
            "scale" : [
                2.315363883972168, 
                2.315363883972168, 
                2.315363883972168
            ], 
            "translation" : [
                -0.01804649829864502, 
                -0.010419145226478577, 
                0.015450775623321533
            ]
        }, 
        {
            "name" : "Chamber 5", 
            "rotation" : [
                0.0, 
                0.0, 
                0.49999964237213135, 
                0.8660256266593933
            ], 
            "scale" : [
                2.315363883972168, 
                2.315363883972168, 
                2.315363883972168
            ], 
            "translation" : [
                -0.018046468496322632, 
                0.010419145226478577, 
                0.015450775623321533
            ]
        }, 
        {
            "children" : [
                3, 
                4, 
                5, 
                6, 
                7, 
                8
            ], 
            "mesh" : 0, 
            "name" : "Cylinder", 
            "translation" : [
                0.018182486295700073, 
                0.035599082708358765, 
                0.03815370798110962
            ]
        }, 
        {
            "children" : [
                9
            ], 
            "name" : "Cylinder Pivot", 
            "translation" : [
                -0.01818249374628067, 
                0.0153389573097229, 
                -0.2581133246421814
            ]
        }, 
        {
            "mesh" : 1, 
            "name" : "Hammer", 
            "translation" : [
                0.00031169503927230835, 
                0.0356135219335556, 
                -0.14817994832992554
            ]
        }
    ], 
    "scene" : 0, 
    "scenes" : [
        {
            "name" : "Scene", 
            "nodes" : [
                0, 
                2
            ]
        }
    ]
}
