{
    "accessors" : [
        {
            "bufferView" : 0, 
            "componentType" : 5121, 
            "count" : 132, 
            "max" : [
                79
            ], 
            "min" : [
                0
            ], 
            "type" : "SCALAR"
        }, 
        {
            "bufferView" : 1, 
            "componentType" : 5126, 
            "count" : 80, 
            "max" : [
                0.004803270101547241, 
                0.027508128434419632, 
                0.027559170499444008
            ], 
            "min" : [
                -0.004803270101547241, 
                0.0028084474615752697, 
                -0.008970292285084724
            ], 
            "type" : "VEC3"
        }, 
        {
            "bufferView" : 2, 
            "componentType" : 5126, 
            "count" : 80, 
            "max" : [
                1.0, 
                1.0, 
                1.0
            ], 
            "min" : [
                -1.0, 
                -0.9659180641174316, 
                -0.9540117979049683
            ], 
            "type" : "VEC3"
        }, 
        {
            "bufferView" : 3, 
            "componentType" : 5121, 
            "count" : 384, 
            "max" : [
                244
            ], 
            "min" : [
                0
            ], 
            "type" : "SCALAR"
        }, 
        {
            "bufferView" : 4, 
            "componentType" : 5126, 
            "count" : 245, 
            "max" : [
                0.007389380130916834, 
                0.026494719088077545, 
                0.05979055166244507
            ], 
            "min" : [
                -0.00738938245922327, 
                -0.04874372482299805, 
                -0.14731232821941376
            ], 
            "type" : "VEC3"
        }, 
        {
            "bufferView" : 5, 
            "componentType" : 5126, 
            "count" : 245, 
            "max" : [
                1.0, 
                1.0, 
                1.0
            ], 
            "min" : [
                -1.0, 
                -1.0, 
                -1.0
            ], 
            "type" : "VEC3"
        }, 
        {
            "bufferView" : 6, 
            "componentType" : 5121, 
            "count" : 48, 
            "max" : [
                23
            ], 
            "min" : [
                0
            ], 
            "type" : "SCALAR"
        }, 
        {
            "bufferView" : 7, 
            "componentType" : 5126, 
            "count" : 24, 
            "max" : [
                0.006367428693920374, 
                0.015378370881080627, 
                -0.02945033647119999
            ], 
            "min" : [
                -0.006367445923388004, 
                0.0026434999890625477, 
                -0.14731232821941376
            ], 
            "type" : "VEC3"
        }, 
        {
            "bufferView" : 8, 
            "componentType" : 5126, 
            "count" : 24, 
            "max" : [
                0.7071068286895752, 
                0.7071067690849304, 
                8.912104476621607e-08
            ], 
            "min" : [
                -0.7071067690849304, 
                -0.7071067690849304, 
                -1.0
            ], 
            "type" : "VEC3"
        }, 
        {
            "bufferView" : 9, 
            "componentType" : 5121, 
            "count" : 108, 
            "max" : [
                69
            ], 
            "min" : [
                0
            ], 
            "type" : "SCALAR"
        }, 
        {
            "bufferView" : 10, 
            "componentType" : 5126, 
            "count" : 70, 
            "max" : [
                0.009124381467700005, 
                -6.4301879319828e-05, 
                0.10142506659030914
            ], 
            "min" : [
                -0.00912438053637743, 
                -0.08862870186567307, 
                0.032097674906253815
            ], 
            "type" : "VEC3"
        }, 
        {
            "bufferView" : 11, 
            "componentType" : 5126, 
            "count" : 70, 
            "max" : [
                1.0, 
                0.8329848051071167, 
                0.9443627595901489
            ], 
            "min" : [
                -1.0, 
                -1.0, 
                -0.999843418598175
            ], 
            "type" : "VEC3"
        }, 
        {
            "bufferView" : 12, 
            "componentType" : 5121, 
            "count" : 54, 
            "max" : [
                35
            ], 
            "min" : [
                0
            ], 
            "type" : "SCALAR"
        }, 
        {
            "bufferView" : 13, 
            "componentType" : 5126, 
            "count" : 36, 
            "max" : [
                0.0037509039975702763, 
                0.002643503714352846, 
                -0.02945033647119999
            ], 
            "min" : [
                -0.0037509137764573097, 
                -0.004858310800045729, 
                -0.13784794509410858
            ], 
            "type" : "VEC3"
        }, 
        {
            "bufferView" : 14, 
            "componentType" : 5126, 
            "count" : 36, 
            "max" : [
                0.7071068286895752, 
                0.7071072459220886, 
                7.336524276979617e-08
            ], 
            "min" : [
                -0.7071071267127991, 
                -0.7071067094802856, 
                -1.0
            ], 
            "type" : "VEC3"
        }, 
        {
            "bufferView" : 15, 
            "componentType" : 5121, 
            "count" : 60, 
            "max" : [
                35
            ], 
            "min" : [
                0
            ], 
            "type" : "SCALAR"
        }, 
        {
            "bufferView" : 16, 
            "componentType" : 5126, 
            "count" : 36, 
            "max" : [
                0.012968480587005615, 
                0.014974702149629593, 
                0.01641806960105896
            ], 
            "min" : [
                -0.012968480587005615, 
                -0.014974690973758698, 
                -0.016418054699897766
            ], 
            "type" : "VEC3"
        }, 
        {
            "bufferView" : 17, 
            "componentType" : 5126, 
            "count" : 36, 
            "max" : [
                1.0, 
                0.8660257458686829, 
                1.0
            ], 
            "min" : [
                -1.0, 
                -0.8660256266593933, 
                -1.0
            ], 
            "type" : "VEC3"
        }
    ], 
    "asset" : {
        "generator" : "Khronos Blender glTF 2.0 exporter", 
        "version" : "2.0"
    }, 
    "bufferViews" : [
        {
            "buffer" : 0, 
            "byteLength" : 132, 
            "byteOffset" : 0, 
            "target" : 34963
        }, 
        {
            "buffer" : 0, 
            "byteLength" : 960, 
            "byteOffset" : 132, 
            "target" : 34962
        }, 
        {
            "buffer" : 0, 
            "byteLength" : 960, 
            "byteOffset" : 1092, 
            "target" : 34962
        }, 
        {
            "buffer" : 0, 
            "byteLength" : 384, 
            "byteOffset" : 2052, 
            "target" : 34963
        }, 
        {
            "buffer" : 0, 
            "byteLength" : 2940, 
            "byteOffset" : 2436, 
            "target" : 34962
        }, 
        {
            "buffer" : 0, 
            "byteLength" : 2940, 
            "byteOffset" : 5376, 
            "target" : 34962
        }, 
        {
            "buffer" : 0, 
            "byteLength" : 48, 
            "byteOffset" : 8316, 
            "target" : 34963
        }, 
        {
            "buffer" : 0, 
            "byteLength" : 288, 
            "byteOffset" : 8364, 
            "target" : 34962
        }, 
        {
            "buffer" : 0, 
            "byteLength" : 288, 
            "byteOffset" : 8652, 
            "target" : 34962
        }, 
        {
            "buffer" : 0, 
            "byteLength" : 108, 
            "byteOffset" : 8940, 
            "target" : 34963
        }, 
        {
            "buffer" : 0, 
            "byteLength" : 840, 
            "byteOffset" : 9048, 
            "target" : 34962
        }, 
        {
            "buffer" : 0, 
            "byteLength" : 840, 
            "byteOffset" : 9888, 
            "target" : 34962
        }, 
        {
            "buffer" : 0, 
            "byteLength" : 54, 
            "byteOffset" : 10728, 
            "target" : 34963
        }, 
        {
            "buffer" : 0, 
            "byteLength" : 432, 
            "byteOffset" : 10784, 
            "target" : 34962
        }, 
        {
            "buffer" : 0, 
            "byteLength" : 432, 
            "byteOffset" : 11216, 
            "target" : 34962
        }, 
        {
            "buffer" : 0, 
            "byteLength" : 60, 
            "byteOffset" : 11648, 
            "target" : 34963
        }, 
        {
            "buffer" : 0, 
            "byteLength" : 432, 
            "byteOffset" : 11708, 
            "target" : 34962
        }, 
        {
            "buffer" : 0, 
            "byteLength" : 432, 
            "byteOffset" : 12140, 
            "target" : 34962
        }
    ], 
    "buffers" : [
        {
            "byteLength" : 12572, 
            "uri" : "revolver-python.bin"
        }
    ], 
    "materials" : [
        {
            "name" : "metal", 
            "pbrMetallicRoughness" : {
                "baseColorFactor" : [
                    0.11161400377750397, 
                    0.13733865320682526, 
                    0.15027189254760742, 
                    1.0
                ], 
                "metallicFactor" : 0.0
            }
        }, 
        {
            "name" : "metal_copper", 
            "pbrMetallicRoughness" : {
                "baseColorFactor" : [
                    0.27917027473449707, 
                    0.11537003517150879, 
                    0.0692158192396164, 
                    1.0
                ], 
                "metallicFactor" : 0.0
            }
        }, 
        {
            "name" : "metal_dark", 
            "pbrMetallicRoughness" : {
                "baseColorFactor" : [
                    0.05999999865889549, 
                    0.07206425070762634, 
                    0.08101470023393631, 
                    1.0
                ], 
                "metallicFactor" : 0.0
            }
        }, 
        {
            "name" : "metal_light", 
            "pbrMetallicRoughness" : {
                "baseColorFactor" : [
                    0.23103851079940796, 
                    0.28235578536987305, 
                    0.3153786063194275, 
                    1.0
                ], 
                "metallicFactor" : 0.0
            }
        }
    ], 
    "meshes" : [
        {
            "name" : "Cube", 
            "primitives" : [
                {
                    "attributes" : {
                        "NORMAL" : 2, 
                        "POSITION" : 1
                    }, 
                    "indices" : 0, 
                    "material" : 3
                }
            ]
        }, 
        {
            "name" : "Cube.002", 
            "primitives" : [
                {
                    "attributes" : {
                        "NORMAL" : 5, 
                        "POSITION" : 4
                    }, 
                    "indices" : 3, 
                    "material" : 2
                }, 
                {
                    "attributes" : {
                        "NORMAL" : 8, 
                        "POSITION" : 7
                    }, 
                    "indices" : 6, 
                    "material" : 3
                }, 
                {
                    "attributes" : {
                        "NORMAL" : 11, 
                        "POSITION" : 10
                    }, 
                    "indices" : 9, 
                    "material" : 1
                }, 
                {
                    "attributes" : {
                        "NORMAL" : 14, 
                        "POSITION" : 13
                    }, 
                    "indices" : 12, 
                    "material" : 0
                }
            ]
        }, 
        {
            "name" : "Cylinder", 
            "primitives" : [
                {
                    "attributes" : {
                        "NORMAL" : 17, 
                        "POSITION" : 16
                    }, 
                    "indices" : 15, 
                    "material" : 0
                }
            ]
        }
    ], 
    "nodes" : [
        {
            "children" : [
                2, 
                3
            ], 
            "mesh" : 1, 
            "name" : "body", 
            "translation" : [
                0.1163039579987526, 
                -0.0431194044649601, 
                -0.40360715985298157
            ]
        }, 
        {
            "name" : "Camera", 
            "rotation" : [
                0.7071068286895752, 
                0.0, 
                -0.0, 
                0.7071068286895752
            ]
        }, 
        {
            "mesh" : 2, 
            "name" : "cylinder", 
            "translation" : [
                6.80387020111084e-05, 
                -0.00015609711408615112, 
                -6.0230493545532227e-05
            ]
        }, 
        {
            "mesh" : 0, 
            "name" : "hammer", 
            "translation" : [
                0.00013461709022521973, 
                -0.006618618965148926, 
                0.03100147843360901
            ]
        }, 
        {
            "name" : "Lamp", 
            "rotation" : [
                0.3747762441635132, 
                0.09349966049194336, 
                -0.48352423310279846, 
                0.7854965925216675
            ], 
            "translation" : [
                4.076245307922363, 
                5.903861999511719, 
                -3.1633830070495605
            ]
        }
    ], 
    "scene" : 0, 
    "scenes" : [
        {
            "name" : "Scene", 
            "nodes" : [
                0, 
                4, 
                1
            ]
        }
    ]
}
