{
    "accessors" : [
        {
            "bufferView" : 0, 
            "componentType" : 5121, 
            "count" : 132, 
            "max" : [
                79
            ], 
            "min" : [
                0
            ], 
            "type" : "SCALAR"
        }, 
        {
            "bufferView" : 1, 
            "componentType" : 5126, 
            "count" : 80, 
            "max" : [
                0.004803270101547241, 
                0.027508128434419632, 
                0.027559170499444008
            ], 
            "min" : [
                -0.004803270101547241, 
                0.0028084474615752697, 
                -0.008970292285084724
            ], 
            "type" : "VEC3"
        }, 
        {
            "bufferView" : 2, 
            "componentType" : 5126, 
            "count" : 80, 
            "max" : [
                1.0, 
                1.0, 
                1.0
            ], 
            "min" : [
                -1.0, 
                -0.9659180641174316, 
                -0.9540117979049683
            ], 
            "type" : "VEC3"
        }, 
        {
            "bufferView" : 3, 
            "componentType" : 5121, 
            "count" : 60, 
            "max" : [
                35
            ], 
            "min" : [
                0
            ], 
            "type" : "SCALAR"
        }, 
        {
            "bufferView" : 4, 
            "componentType" : 5126, 
            "count" : 36, 
            "max" : [
                0.012968480587005615, 
                0.014974702149629593, 
                0.01641806960105896
            ], 
            "min" : [
                -0.012968480587005615, 
                -0.014974690973758698, 
                -0.016418054699897766
            ], 
            "type" : "VEC3"
        }, 
        {
            "bufferView" : 5, 
            "componentType" : 5126, 
            "count" : 36, 
            "max" : [
                1.0, 
                0.8660257458686829, 
                1.0
            ], 
            "min" : [
                -1.0, 
                -0.8660256266593933, 
                -1.0
            ], 
            "type" : "VEC3"
        }, 
        {
            "bufferView" : 6, 
            "componentType" : 5121, 
            "count" : 54, 
            "max" : [
                35
            ], 
            "min" : [
                0
            ], 
            "type" : "SCALAR"
        }, 
        {
            "bufferView" : 7, 
            "componentType" : 5126, 
            "count" : 36, 
            "max" : [
                0.0038903183303773403, 
                0.004160769749432802, 
                -0.004210521001368761
            ], 
            "min" : [
                -0.003947925288230181, 
                -0.003677478525787592, 
                -0.011979009956121445
            ], 
            "type" : "VEC3"
        }, 
        {
            "bufferView" : 8, 
            "componentType" : 5126, 
            "count" : 36, 
            "max" : [
                0.703143298625946, 
                0.7031423449516296, 
                -0.10575569421052933
            ], 
            "min" : [
                -0.7031418681144714, 
                -0.7031419277191162, 
                -1.0
            ], 
            "type" : "VEC3"
        }, 
        {
            "bufferView" : 9, 
            "componentType" : 5121, 
            "count" : 150, 
            "max" : [
                79
            ], 
            "min" : [
                0
            ], 
            "type" : "SCALAR"
        }, 
        {
            "bufferView" : 10, 
            "componentType" : 5126, 
            "count" : 80, 
            "max" : [
                0.004723451100289822, 
                0.0048705581575632095, 
                0.01188185065984726
            ], 
            "min" : [
                -0.004708798136562109, 
                -0.004561699461191893, 
                -0.004210521001368761
            ], 
            "type" : "VEC3"
        }, 
        {
            "bufferView" : 11, 
            "componentType" : 5126, 
            "count" : 80, 
            "max" : [
                0.707107424736023, 
                0.7071068286895752, 
                1.0
            ], 
            "min" : [
                -0.7071073651313782, 
                -0.7071069478988647, 
                -1.0
            ], 
            "type" : "VEC3"
        }, 
        {
            "bufferView" : 12, 
            "componentType" : 5121, 
            "count" : 54, 
            "max" : [
                35
            ], 
            "min" : [
                0
            ], 
            "type" : "SCALAR"
        }, 
        {
            "bufferView" : 13, 
            "componentType" : 5126, 
            "count" : 36, 
            "max" : [
                0.0037509039975702763, 
                0.002643503714352846, 
                -0.02945033647119999
            ], 
            "min" : [
                -0.0037509137764573097, 
                -0.004858310800045729, 
                -0.13784794509410858
            ], 
            "type" : "VEC3"
        }, 
        {
            "bufferView" : 14, 
            "componentType" : 5126, 
            "count" : 36, 
            "max" : [
                0.7071068286895752, 
                0.7071072459220886, 
                7.336524276979617e-08
            ], 
            "min" : [
                -0.7071071267127991, 
                -0.7071067094802856, 
                -1.0
            ], 
            "type" : "VEC3"
        }, 
        {
            "bufferView" : 15, 
            "componentType" : 5121, 
            "count" : 48, 
            "max" : [
                23
            ], 
            "min" : [
                0
            ], 
            "type" : "SCALAR"
        }, 
        {
            "bufferView" : 16, 
            "componentType" : 5126, 
            "count" : 24, 
            "max" : [
                0.006367428693920374, 
                0.015378370881080627, 
                -0.02945033647119999
            ], 
            "min" : [
                -0.006367445923388004, 
                0.0026434999890625477, 
                -0.14731232821941376
            ], 
            "type" : "VEC3"
        }, 
        {
            "bufferView" : 17, 
            "componentType" : 5126, 
            "count" : 24, 
            "max" : [
                0.7071068286895752, 
                0.7071067690849304, 
                8.912104476621607e-08
            ], 
            "min" : [
                -0.7071067690849304, 
                -0.7071067690849304, 
                -1.0
            ], 
            "type" : "VEC3"
        }, 
        {
            "bufferView" : 18, 
            "componentType" : 5121, 
            "count" : 108, 
            "max" : [
                69
            ], 
            "min" : [
                0
            ], 
            "type" : "SCALAR"
        }, 
        {
            "bufferView" : 19, 
            "componentType" : 5126, 
            "count" : 70, 
            "max" : [
                0.009124381467700005, 
                -6.4301879319828e-05, 
                0.10142506659030914
            ], 
            "min" : [
                -0.00912438053637743, 
                -0.08862870186567307, 
                0.032097674906253815
            ], 
            "type" : "VEC3"
        }, 
        {
            "bufferView" : 20, 
            "componentType" : 5126, 
            "count" : 70, 
            "max" : [
                1.0, 
                0.8329848051071167, 
                0.9443627595901489
            ], 
            "min" : [
                -1.0, 
                -1.0, 
                -0.999843418598175
            ], 
            "type" : "VEC3"
        }, 
        {
            "bufferView" : 21, 
            "componentType" : 5121, 
            "count" : 384, 
            "max" : [
                244
            ], 
            "min" : [
                0
            ], 
            "type" : "SCALAR"
        }, 
        {
            "bufferView" : 22, 
            "componentType" : 5126, 
            "count" : 245, 
            "max" : [
                0.007389380130916834, 
                0.026494719088077545, 
                0.05979055166244507
            ], 
            "min" : [
                -0.00738938245922327, 
                -0.04874372482299805, 
                -0.14731232821941376
            ], 
            "type" : "VEC3"
        }, 
        {
            "bufferView" : 23, 
            "componentType" : 5126, 
            "count" : 245, 
            "max" : [
                1.0, 
                1.0, 
                1.0
            ], 
            "min" : [
                -1.0, 
                -1.0, 
                -1.0
            ], 
            "type" : "VEC3"
        }
    ], 
    "asset" : {
        "generator" : "Khronos Blender glTF 2.0 exporter", 
        "version" : "2.0"
    }, 
    "bufferViews" : [
        {
            "buffer" : 0, 
            "byteLength" : 132, 
            "byteOffset" : 0, 
            "target" : 34963
        }, 
        {
            "buffer" : 0, 
            "byteLength" : 960, 
            "byteOffset" : 132, 
            "target" : 34962
        }, 
        {
            "buffer" : 0, 
            "byteLength" : 960, 
            "byteOffset" : 1092, 
            "target" : 34962
        }, 
        {
            "buffer" : 0, 
            "byteLength" : 60, 
            "byteOffset" : 2052, 
            "target" : 34963
        }, 
        {
            "buffer" : 0, 
            "byteLength" : 432, 
            "byteOffset" : 2112, 
            "target" : 34962
        }, 
        {
            "buffer" : 0, 
            "byteLength" : 432, 
            "byteOffset" : 2544, 
            "target" : 34962
        }, 
        {
            "buffer" : 0, 
            "byteLength" : 54, 
            "byteOffset" : 2976, 
            "target" : 34963
        }, 
        {
            "buffer" : 0, 
            "byteLength" : 432, 
            "byteOffset" : 3032, 
            "target" : 34962
        }, 
        {
            "buffer" : 0, 
            "byteLength" : 432, 
            "byteOffset" : 3464, 
            "target" : 34962
        }, 
        {
            "buffer" : 0, 
            "byteLength" : 150, 
            "byteOffset" : 3896, 
            "target" : 34963
        }, 
        {
            "buffer" : 0, 
            "byteLength" : 960, 
            "byteOffset" : 4048, 
            "target" : 34962
        }, 
        {
            "buffer" : 0, 
            "byteLength" : 960, 
            "byteOffset" : 5008, 
            "target" : 34962
        }, 
        {
            "buffer" : 0, 
            "byteLength" : 54, 
            "byteOffset" : 5968, 
            "target" : 34963
        }, 
        {
            "buffer" : 0, 
            "byteLength" : 432, 
            "byteOffset" : 6024, 
            "target" : 34962
        }, 
        {
            "buffer" : 0, 
            "byteLength" : 432, 
            "byteOffset" : 6456, 
            "target" : 34962
        }, 
        {
            "buffer" : 0, 
            "byteLength" : 48, 
            "byteOffset" : 6888, 
            "target" : 34963
        }, 
        {
            "buffer" : 0, 
            "byteLength" : 288, 
            "byteOffset" : 6936, 
            "target" : 34962
        }, 
        {
            "buffer" : 0, 
            "byteLength" : 288, 
            "byteOffset" : 7224, 
            "target" : 34962
        }, 
        {
            "buffer" : 0, 
            "byteLength" : 108, 
            "byteOffset" : 7512, 
            "target" : 34963
        }, 
        {
            "buffer" : 0, 
            "byteLength" : 840, 
            "byteOffset" : 7620, 
            "target" : 34962
        }, 
        {
            "buffer" : 0, 
            "byteLength" : 840, 
            "byteOffset" : 8460, 
            "target" : 34962
        }, 
        {
            "buffer" : 0, 
            "byteLength" : 384, 
            "byteOffset" : 9300, 
            "target" : 34963
        }, 
        {
            "buffer" : 0, 
            "byteLength" : 2940, 
            "byteOffset" : 9684, 
            "target" : 34962
        }, 
        {
            "buffer" : 0, 
            "byteLength" : 2940, 
            "byteOffset" : 12624, 
            "target" : 34962
        }
    ], 
    "buffers" : [
        {
            "byteLength" : 15564, 
            "uri" : "revolver-python.bin"
        }
    ], 
    "materials" : [
        {
            "name" : "metal", 
            "pbrMetallicRoughness" : {
                "baseColorFactor" : [
                    0.11161400377750397, 
                    0.13733865320682526, 
                    0.15027189254760742, 
                    1.0
                ], 
                "metallicFactor" : 0.0
            }
        }, 
        {
            "name" : "metal_copper", 
            "pbrMetallicRoughness" : {
                "baseColorFactor" : [
                    0.27917027473449707, 
                    0.11537003517150879, 
                    0.0692158192396164, 
                    1.0
                ], 
                "metallicFactor" : 0.0
            }
        }, 
        {
            "name" : "metal_dark", 
            "pbrMetallicRoughness" : {
                "baseColorFactor" : [
                    0.05999999865889549, 
                    0.07206425070762634, 
                    0.08101470023393631, 
                    1.0
                ], 
                "metallicFactor" : 0.0
            }
        }, 
        {
            "name" : "metal_light", 
            "pbrMetallicRoughness" : {
                "baseColorFactor" : [
                    0.23103851079940796, 
                    0.28235578536987305, 
                    0.3153786063194275, 
                    1.0
                ], 
                "metallicFactor" : 0.0
            }
        }, 
        {
            "name" : "metal_gold", 
            "pbrMetallicRoughness" : {
                "baseColorFactor" : [
                    0.3995513916015625, 
                    0.2635576128959656, 
                    0.10431844741106033, 
                    1.0
                ], 
                "metallicFactor" : 0.0
            }
        }, 
        {
            "name" : "metal_copper", 
            "pbrMetallicRoughness" : {
                "baseColorFactor" : [
                    0.27917027473449707, 
                    0.11537003517150879, 
                    0.0692158192396164, 
                    1.0
                ], 
                "metallicFactor" : 0.0
            }
        }
    ], 
    "meshes" : [
        {
            "name" : "Cube", 
            "primitives" : [
                {
                    "attributes" : {
                        "NORMAL" : 2, 
                        "POSITION" : 1
                    }, 
                    "indices" : 0, 
                    "material" : 3
                }
            ]
        }, 
        {
            "name" : "Cylinder", 
            "primitives" : [
                {
                    "attributes" : {
                        "NORMAL" : 5, 
                        "POSITION" : 4
                    }, 
                    "indices" : 3, 
                    "material" : 0
                }
            ]
        }, 
        {
            "name" : "Cube.003", 
            "primitives" : [
                {
                    "attributes" : {
                        "NORMAL" : 8, 
                        "POSITION" : 7
                    }, 
                    "indices" : 6, 
                    "material" : 1
                }, 
                {
                    "attributes" : {
                        "NORMAL" : 11, 
                        "POSITION" : 10
                    }, 
                    "indices" : 9, 
                    "material" : 4
                }
            ]
        }, 
        {
            "name" : "Cube.002", 
            "primitives" : [
                {
                    "attributes" : {
                        "NORMAL" : 14, 
                        "POSITION" : 13
                    }, 
                    "indices" : 12, 
                    "material" : 0
                }, 
                {
                    "attributes" : {
                        "NORMAL" : 17, 
                        "POSITION" : 16
                    }, 
                    "indices" : 15, 
                    "material" : 3
                }, 
                {
                    "attributes" : {
                        "NORMAL" : 20, 
                        "POSITION" : 19
                    }, 
                    "indices" : 18, 
                    "material" : 1
                }, 
                {
                    "attributes" : {
                        "NORMAL" : 23, 
                        "POSITION" : 22
                    }, 
                    "indices" : 21, 
                    "material" : 2
                }
            ]
        }
    ], 
    "nodes" : [
        {
            "children" : [
                9, 
                10
            ], 
            "mesh" : 3, 
            "name" : "Body", 
            "translation" : [
                0.1163039579987526, 
                -0.0431194044649601, 
                -0.40360715985298157
            ]
        }, 
        {
            "name" : "Camera", 
            "rotation" : [
                0.7071068286895752, 
                0.0, 
                -0.0, 
                0.7071068286895752
            ]
        }, 
        {
            "name" : "Chamber 0", 
            "translation" : [
                0.0, 
                0.008999999612569809, 
                0.006673157215118408
            ]
        }, 
        {
            "name" : "Chamber 1", 
            "rotation" : [
                0.0, 
                0.0, 
                -0.5, 
                0.8660253882408142
            ], 
            "translation" : [
                0.007794231176376343, 
                0.004499997943639755, 
                0.006673157215118408
            ]
        }, 
        {
            "name" : "Chamber 2", 
            "rotation" : [
                0.0, 
                0.0, 
                -0.8660253882408142, 
                0.4999999701976776
            ], 
            "translation" : [
                0.007794231176376343, 
                -0.004500005394220352, 
                0.006673157215118408
            ]
        }, 
        {
            "name" : "Chamber 3", 
            "rotation" : [
                0.0, 
                0.0, 
                -1.0, 
                -1.6292068494294654e-07
            ], 
            "translation" : [
                -7.450580596923828e-09, 
                -0.009000007063150406, 
                0.006673157215118408
            ]
        }, 
        {
            "name" : "Chamber 4", 
            "rotation" : [
                0.0, 
                0.0, 
                0.8660252690315247, 
                0.5000002384185791
            ], 
            "translation" : [
                -0.00779423862695694, 
                -0.004499997943639755, 
                0.006673157215118408
            ]
        }, 
        {
            "name" : "Chamber 5", 
            "rotation" : [
                0.0, 
                0.0, 
                0.49999964237213135, 
                0.8660256266593933
            ], 
            "translation" : [
                -0.007794231176376343, 
                0.004500009119510651, 
                0.006673157215118408
            ]
        }, 
        {
            "children" : [
                2, 
                3, 
                4, 
                5, 
                6, 
                7
            ], 
            "mesh" : 1, 
            "name" : "Cylinder", 
            "translation" : [
                0.00785297155380249, 
                0.015375155955553055, 
                0.01647847890853882
            ]
        }, 
        {
            "children" : [
                8
            ], 
            "name" : "Cylinder Pivot", 
            "translation" : [
                -0.00785297155380249, 
                -0.015375155955553055, 
                -0.01647847890853882
            ]
        }, 
        {
            "mesh" : 0, 
            "name" : "Hammer", 
            "translation" : [
                0.00013461709022521973, 
                -0.006618618965148926, 
                0.03100147843360901
            ]
        }, 
        {
            "mesh" : 2, 
            "name" : "bullet-9mm"
        }
    ], 
    "scene" : 0, 
    "scenes" : [
        {
            "name" : "Scene", 
            "nodes" : [
                0, 
                1
            ]
        }
    ]
}
