{
    "accessors" : [
        {
            "bufferView" : 0, 
            "componentType" : 5121, 
            "count" : 132, 
            "max" : [
                79
            ], 
            "min" : [
                0
            ], 
            "type" : "SCALAR"
        }, 
        {
            "bufferView" : 1, 
            "componentType" : 5126, 
            "count" : 80, 
            "max" : [
                0.004803270101547241, 
                0.027508128434419632, 
                0.027559170499444008
            ], 
            "min" : [
                -0.004803270101547241, 
                0.0028084474615752697, 
                -0.008970292285084724
            ], 
            "type" : "VEC3"
        }, 
        {
            "bufferView" : 2, 
            "componentType" : 5126, 
            "count" : 80, 
            "max" : [
                1.0, 
                1.0, 
                1.0
            ], 
            "min" : [
                -1.0, 
                -0.9659180641174316, 
                -0.9540117979049683
            ], 
            "type" : "VEC3"
        }, 
        {
            "bufferView" : 3, 
            "componentType" : 5121, 
            "count" : 60, 
            "max" : [
                35
            ], 
            "min" : [
                0
            ], 
            "type" : "SCALAR"
        }, 
        {
            "bufferView" : 4, 
            "componentType" : 5126, 
            "count" : 36, 
            "max" : [
                0.012968480587005615, 
                0.014974702149629593, 
                0.01641806960105896
            ], 
            "min" : [
                -0.012968480587005615, 
                -0.014974690973758698, 
                -0.016418054699897766
            ], 
            "type" : "VEC3"
        }, 
        {
            "bufferView" : 5, 
            "componentType" : 5126, 
            "count" : 36, 
            "max" : [
                1.0, 
                0.8660257458686829, 
                1.0
            ], 
            "min" : [
                -1.0, 
                -0.8660256266593933, 
                -1.0
            ], 
            "type" : "VEC3"
        }, 
        {
            "bufferView" : 6, 
            "componentType" : 5121, 
            "count" : 108, 
            "max" : [
                69
            ], 
            "min" : [
                0
            ], 
            "type" : "SCALAR"
        }, 
        {
            "bufferView" : 7, 
            "componentType" : 5126, 
            "count" : 70, 
            "max" : [
                0.009124381467700005, 
                0.021935708820819855, 
                0.006425037980079651
            ], 
            "min" : [
                -0.00912438053637743, 
                -0.06662869453430176, 
                -0.06290235370397568
            ], 
            "type" : "VEC3"
        }, 
        {
            "bufferView" : 8, 
            "componentType" : 5126, 
            "count" : 70, 
            "max" : [
                1.0, 
                0.8329848051071167, 
                0.9443627595901489
            ], 
            "min" : [
                -1.0, 
                -1.0, 
                -0.9998434782028198
            ], 
            "type" : "VEC3"
        }, 
        {
            "bufferView" : 9, 
            "componentType" : 5121, 
            "count" : 54, 
            "max" : [
                35
            ], 
            "min" : [
                0
            ], 
            "type" : "SCALAR"
        }, 
        {
            "bufferView" : 10, 
            "componentType" : 5126, 
            "count" : 36, 
            "max" : [
                0.0037509039975702763, 
                0.024643514305353165, 
                -0.12445036321878433
            ], 
            "min" : [
                -0.0037509137764573097, 
                0.01714169979095459, 
                -0.23284797370433807
            ], 
            "type" : "VEC3"
        }, 
        {
            "bufferView" : 11, 
            "componentType" : 5126, 
            "count" : 36, 
            "max" : [
                0.7071068286895752, 
                0.7071072459220886, 
                7.336524276979617e-08
            ], 
            "min" : [
                -0.7071071267127991, 
                -0.7071067094802856, 
                -1.0
            ], 
            "type" : "VEC3"
        }, 
        {
            "bufferView" : 12, 
            "componentType" : 5121, 
            "count" : 384, 
            "max" : [
                244
            ], 
            "min" : [
                0
            ], 
            "type" : "SCALAR"
        }, 
        {
            "bufferView" : 13, 
            "componentType" : 5126, 
            "count" : 245, 
            "max" : [
                0.007389380130916834, 
                0.04849473014473915, 
                -0.035209476947784424
            ], 
            "min" : [
                -0.00738938245922327, 
                -0.02674371376633644, 
                -0.24231235682964325
            ], 
            "type" : "VEC3"
        }, 
        {
            "bufferView" : 14, 
            "componentType" : 5126, 
            "count" : 245, 
            "max" : [
                1.0, 
                1.0, 
                1.0
            ], 
            "min" : [
                -1.0, 
                -1.0, 
                -1.0
            ], 
            "type" : "VEC3"
        }, 
        {
            "bufferView" : 15, 
            "componentType" : 5121, 
            "count" : 48, 
            "max" : [
                23
            ], 
            "min" : [
                0
            ], 
            "type" : "SCALAR"
        }, 
        {
            "bufferView" : 16, 
            "componentType" : 5126, 
            "count" : 24, 
            "max" : [
                0.006367428693920374, 
                0.03737838193774223, 
                -0.12445036321878433
            ], 
            "min" : [
                -0.006367445923388004, 
                0.024643510580062866, 
                -0.24231235682964325
            ], 
            "type" : "VEC3"
        }, 
        {
            "bufferView" : 17, 
            "componentType" : 5126, 
            "count" : 24, 
            "max" : [
                0.7071068286895752, 
                0.7071067690849304, 
                9.083490937200622e-08
            ], 
            "min" : [
                -0.7071067690849304, 
                -0.7071067690849304, 
                -1.0
            ], 
            "type" : "VEC3"
        }
    ], 
    "asset" : {
        "generator" : "Khronos Blender glTF 2.0 exporter", 
        "version" : "2.0"
    }, 
    "bufferViews" : [
        {
            "buffer" : 0, 
            "byteLength" : 132, 
            "byteOffset" : 0, 
            "target" : 34963
        }, 
        {
            "buffer" : 0, 
            "byteLength" : 960, 
            "byteOffset" : 132, 
            "target" : 34962
        }, 
        {
            "buffer" : 0, 
            "byteLength" : 960, 
            "byteOffset" : 1092, 
            "target" : 34962
        }, 
        {
            "buffer" : 0, 
            "byteLength" : 60, 
            "byteOffset" : 2052, 
            "target" : 34963
        }, 
        {
            "buffer" : 0, 
            "byteLength" : 432, 
            "byteOffset" : 2112, 
            "target" : 34962
        }, 
        {
            "buffer" : 0, 
            "byteLength" : 432, 
            "byteOffset" : 2544, 
            "target" : 34962
        }, 
        {
            "buffer" : 0, 
            "byteLength" : 108, 
            "byteOffset" : 2976, 
            "target" : 34963
        }, 
        {
            "buffer" : 0, 
            "byteLength" : 840, 
            "byteOffset" : 3084, 
            "target" : 34962
        }, 
        {
            "buffer" : 0, 
            "byteLength" : 840, 
            "byteOffset" : 3924, 
            "target" : 34962
        }, 
        {
            "buffer" : 0, 
            "byteLength" : 54, 
            "byteOffset" : 4764, 
            "target" : 34963
        }, 
        {
            "buffer" : 0, 
            "byteLength" : 432, 
            "byteOffset" : 4820, 
            "target" : 34962
        }, 
        {
            "buffer" : 0, 
            "byteLength" : 432, 
            "byteOffset" : 5252, 
            "target" : 34962
        }, 
        {
            "buffer" : 0, 
            "byteLength" : 384, 
            "byteOffset" : 5684, 
            "target" : 34963
        }, 
        {
            "buffer" : 0, 
            "byteLength" : 2940, 
            "byteOffset" : 6068, 
            "target" : 34962
        }, 
        {
            "buffer" : 0, 
            "byteLength" : 2940, 
            "byteOffset" : 9008, 
            "target" : 34962
        }, 
        {
            "buffer" : 0, 
            "byteLength" : 48, 
            "byteOffset" : 11948, 
            "target" : 34963
        }, 
        {
            "buffer" : 0, 
            "byteLength" : 288, 
            "byteOffset" : 11996, 
            "target" : 34962
        }, 
        {
            "buffer" : 0, 
            "byteLength" : 288, 
            "byteOffset" : 12284, 
            "target" : 34962
        }
    ], 
    "buffers" : [
        {
            "byteLength" : 12572, 
            "uri" : "revolver-python.bin"
        }
    ], 
    "materials" : [
        {
            "name" : "metal", 
            "pbrMetallicRoughness" : {
                "baseColorFactor" : [
                    0.11161400377750397, 
                    0.13733865320682526, 
                    0.15027189254760742, 
                    1.0
                ], 
                "metallicFactor" : 0.0
            }
        }, 
        {
            "name" : "metal_copper", 
            "pbrMetallicRoughness" : {
                "baseColorFactor" : [
                    0.27917027473449707, 
                    0.11537003517150879, 
                    0.0692158192396164, 
                    1.0
                ], 
                "metallicFactor" : 0.0
            }
        }, 
        {
            "name" : "metal_dark", 
            "pbrMetallicRoughness" : {
                "baseColorFactor" : [
                    0.05999999865889549, 
                    0.07206425070762634, 
                    0.08101470023393631, 
                    1.0
                ], 
                "metallicFactor" : 0.0
            }
        }, 
        {
            "name" : "metal_light", 
            "pbrMetallicRoughness" : {
                "baseColorFactor" : [
                    0.23103851079940796, 
                    0.28235578536987305, 
                    0.3153786063194275, 
                    1.0
                ], 
                "metallicFactor" : 0.0
            }
        }
    ], 
    "meshes" : [
        {
            "name" : "Cube", 
            "primitives" : [
                {
                    "attributes" : {
                        "NORMAL" : 2, 
                        "POSITION" : 1
                    }, 
                    "indices" : 0, 
                    "material" : 3
                }
            ]
        }, 
        {
            "name" : "Cylinder", 
            "primitives" : [
                {
                    "attributes" : {
                        "NORMAL" : 5, 
                        "POSITION" : 4
                    }, 
                    "indices" : 3, 
                    "material" : 0
                }
            ]
        }, 
        {
            "name" : "Cube.002", 
            "primitives" : [
                {
                    "attributes" : {
                        "NORMAL" : 8, 
                        "POSITION" : 7
                    }, 
                    "indices" : 6, 
                    "material" : 1
                }, 
                {
                    "attributes" : {
                        "NORMAL" : 11, 
                        "POSITION" : 10
                    }, 
                    "indices" : 9, 
                    "material" : 0
                }, 
                {
                    "attributes" : {
                        "NORMAL" : 14, 
                        "POSITION" : 13
                    }, 
                    "indices" : 12, 
                    "material" : 2
                }, 
                {
                    "attributes" : {
                        "NORMAL" : 17, 
                        "POSITION" : 16
                    }, 
                    "indices" : 15, 
                    "material" : 3
                }
            ]
        }
    ], 
    "nodes" : [
        {
            "children" : [
                9, 
                10
            ], 
            "mesh" : 2, 
            "name" : "Body", 
            "translation" : [
                0.1163039579987526, 
                -0.0651194155216217, 
                -0.3086071312427521
            ]
        }, 
        {
            "name" : "Camera", 
            "rotation" : [
                0.7071068286895752, 
                0.0, 
                -0.0, 
                0.7071068286895752
            ]
        }, 
        {
            "name" : "Chamber 0", 
            "translation" : [
                0.0, 
                0.008999999612569809, 
                0.006673157215118408
            ]
        }, 
        {
            "name" : "Chamber 1", 
            "rotation" : [
                0.0, 
                0.0, 
                -0.5, 
                0.8660253882408142
            ], 
            "translation" : [
                0.007794231176376343, 
                0.004499997943639755, 
                0.006673157215118408
            ]
        }, 
        {
            "name" : "Chamber 2", 
            "rotation" : [
                0.0, 
                0.0, 
                -0.8660253882408142, 
                0.4999999701976776
            ], 
            "translation" : [
                0.007794231176376343, 
                -0.004500005394220352, 
                0.006673157215118408
            ]
        }, 
        {
            "name" : "Chamber 3", 
            "rotation" : [
                0.0, 
                0.0, 
                -1.0, 
                -1.6292068494294654e-07
            ], 
            "translation" : [
                -7.450580596923828e-09, 
                -0.009000007063150406, 
                0.006673157215118408
            ]
        }, 
        {
            "name" : "Chamber 4", 
            "rotation" : [
                0.0, 
                0.0, 
                0.8660252690315247, 
                0.5000002384185791
            ], 
            "translation" : [
                -0.00779423862695694, 
                -0.004499997943639755, 
                0.006673157215118408
            ]
        }, 
        {
            "name" : "Chamber 5", 
            "rotation" : [
                0.0, 
                0.0, 
                0.49999964237213135, 
                0.8660256266593933
            ], 
            "translation" : [
                -0.007794231176376343, 
                0.004500009119510651, 
                0.006673157215118408
            ]
        }, 
        {
            "children" : [
                2, 
                3, 
                4, 
                5, 
                6, 
                7
            ], 
            "mesh" : 1, 
            "name" : "Cylinder", 
            "translation" : [
                0.00785297155380249, 
                0.015375155955553055, 
                0.01647847890853882
            ]
        }, 
        {
            "children" : [
                8
            ], 
            "name" : "Cylinder Pivot", 
            "translation" : [
                -0.00785297155380249, 
                0.006624855101108551, 
                -0.11147850751876831
            ]
        }, 
        {
            "mesh" : 0, 
            "name" : "Hammer", 
            "translation" : [
                0.00013461709022521973, 
                0.01538139209151268, 
                -0.06399855017662048
            ]
        }
    ], 
    "scene" : 0, 
    "scenes" : [
        {
            "name" : "Scene", 
            "nodes" : [
                0, 
                1
            ]
        }
    ]
}
